<svg width="32" height="32" viewBox="0 0 32 32" fill="none" xmlns="http://www.w3.org/2000/svg">
  <!-- Fondo circular con gradiente -->
  <defs>
    <linearGradient id="bgGradient" x1="0%" y1="0%" x2="100%" y2="100%">
      <stop offset="0%" style="stop-color:#667eea;stop-opacity:1" />
      <stop offset="100%" style="stop-color:#764ba2;stop-opacity:1" />
    </linearGradient>
    <linearGradient id="heartGradient" x1="0%" y1="0%" x2="100%" y2="100%">
      <stop offset="0%" style="stop-color:#ff6b6b;stop-opacity:1" />
      <stop offset="100%" style="stop-color:#ee5a24;stop-opacity:1" />
    </linearGradient>
  </defs>
  
  <!-- Círculo de fondo -->
  <circle cx="16" cy="16" r="15" fill="url(#bgGradient)" stroke="#ffffff" stroke-width="1"/>
  
  <!-- Símbolo de conectividad (nodos conectados) -->
  <circle cx="12" cy="12" r="2" fill="#ffffff" opacity="0.9"/>
  <circle cx="20" cy="12" r="2" fill="#ffffff" opacity="0.9"/>
  <circle cx="16" cy="20" r="2" fill="#ffffff" opacity="0.9"/>
  
  <!-- Líneas de conexión -->
  <line x1="12" y1="12" x2="20" y2="12" stroke="#ffffff" stroke-width="1.5" opacity="0.8"/>
  <line x1="14" y1="14" x2="18" y2="18" stroke="#ffffff" stroke-width="1.5" opacity="0.8"/>
  <line x1="18" y1="14" x2="14" y2="18" stroke="#ffffff" stroke-width="1.5" opacity="0.8"/>
  
  <!-- Corazón pequeño en el centro -->
  <path d="M16 18.5c-0.5-0.5-1-1-1.5-1.5s-0.5-1-0.5-1.5c0-0.5 0.2-1 0.5-1.5s0.8-0.5 1.5-0.5 1 0.2 1.5 0.5 0.5 1 0.5 1.5c0 0.5-0.2 1-0.5 1.5s-1 1-1.5 1.5z" 
        fill="url(#heartGradient)" opacity="0.9"/>
  
  <!-- Punto central de conexión -->
  <circle cx="16" cy="16" r="1" fill="#ffffff"/>
</svg> 